<svg xmlns:xlink="http://www.w3.org/1999/xlink" xmlns="http://www.w3.org/2000/svg" width="1440" height="922" viewBox="0 0 1440 922" fill="none">
<g opacity="0.11">
<circle r="6.43639" transform="matrix(4.37114e-08 -1 -1 -4.37114e-08 615.102 204.11)" fill="#5602EE"/>
<circle cx="80.5934" cy="897.526" r="6.43639" transform="rotate(-90 80.5934 897.526)" fill="#14222F"/>
<circle r="6.43639" transform="matrix(-4.37114e-08 1 1 4.37114e-08 786.247 772.168)" fill="#14222F"/>
<circle r="6.43639" transform="matrix(4.37114e-08 -1 -1 -4.37114e-08 931.525 129.89)" fill="#5602EE"/>
<circle cx="195.937" cy="527.108" r="6.43639" transform="rotate(90 195.937 527.108)" fill="#5602EE"/>
<circle cx="1328.74" cy="319.304" r="4.59742" transform="rotate(90 1328.74 319.304)" fill="white"/>
<circle r="4.59742" transform="matrix(4.37114e-08 -1 -1 -4.37114e-08 558.214 282.525)" fill="white"/>
<circle r="4.59742" transform="matrix(4.37114e-08 -1 -1 -4.37114e-08 970.143 519.752)" fill="white"/>
<circle r="4.59742" transform="matrix(-4.37114e-08 1 1 4.37114e-08 477.3 821.82)" fill="white"/>
<circle cx="234.556" cy="137.246" r="4.59742" transform="rotate(90 234.556 137.246)" fill="white"/>
<circle cx="1350.98" cy="600.986" r="4.59742" transform="rotate(90 1350.98 600.986)" fill="white"/>
<circle cx="160.616" cy="773.377" r="4.59742" transform="rotate(-90 160.616 773.377)" fill="white"/>
<circle r="4.59742" transform="matrix(4.37114e-08 -1 -1 -4.37114e-08 1006.92 203.449)" fill="white"/>
<circle cx="1176.11" cy="888.023" r="4.59742" transform="rotate(-90 1176.11 888.023)" fill="white"/>
<circle cx="1165.07" cy="508.718" r="4.59742" transform="rotate(90 1165.07 508.718)" fill="white"/>
<circle r="4.59742" transform="matrix(4.37114e-08 -1 -1 -4.37114e-08 730.758 98.2593)" fill="white"/>
<circle cx="1369.2" cy="720.677" r="4.59742" transform="rotate(-90 1369.2 720.677)" fill="white"/>
<circle cx="1194.5" cy="381.829" r="6.43639" transform="rotate(90 1194.5 381.829)" fill="#5602EE"/>
<circle r="6.43639" transform="matrix(4.37114e-08 -1 -1 -4.37114e-08 295.242 249.423)" fill="#14222F"/>
<circle cx="1102.42" cy="49.055" r="6.43639" transform="rotate(90 1102.42 49.055)" fill="#14222F"/>
<circle cx="58.0147" cy="54.4928" r="6.43639" transform="rotate(90 58.0147 54.4928)" fill="#14222F"/>
<circle cx="1043.7" cy="379.99" r="4.59742" transform="rotate(90 1043.7 379.99)" fill="#14222F"/>
<circle cx="1325.98" cy="195.174" r="1.83897" transform="rotate(90 1325.98 195.174)" fill="white"/>
<circle r="1.83897" transform="matrix(4.37114e-08 -1 -1 -4.37114e-08 739.353 564.807)" fill="white"/>
<circle r="1.83897" transform="matrix(-4.37114e-08 1 1 4.37114e-08 708.09 776.766)" fill="white"/>
<circle cx="1180.71" cy="165.75" r="1.83897" transform="rotate(90 1180.71 165.75)" fill="white"/>
<circle r="1.83897" transform="matrix(4.37114e-08 -1 -1 -4.37114e-08 445.118 491.248)" fill="white"/>
<circle r="1.83897" transform="matrix(-4.37114e-08 1 1 4.37114e-08 1002.33 850.324)" fill="white"/>
<circle r="1.83897" transform="matrix(4.37114e-08 -1 -1 -4.37114e-08 844.174 502.282)" fill="white"/>
<circle r="1.83897" transform="matrix(-4.37114e-08 1 1 4.37114e-08 798.304 852.48)" fill="white"/>
<circle cx="108.586" cy="154.717" r="1.83897" transform="rotate(90 108.586 154.717)" fill="white"/>
<circle cx="1438.16" cy="355.164" r="1.83897" transform="rotate(90 1438.16 355.164)" fill="white"/>
<circle r="1.83897" transform="matrix(4.37114e-08 -1 -1 -4.37114e-08 702.573 625.493)" fill="white"/>
<circle r="1.83897" transform="matrix(-4.37114e-08 1 1 4.37114e-08 744.87 716.08)" fill="white"/>
<circle cx="1167.83" cy="474.697" r="1.83897" transform="rotate(90 1167.83 474.697)" fill="white"/>
<circle cx="279.61" cy="866.875" r="1.83897" transform="rotate(-90 279.61 866.875)" fill="white"/>
<circle r="1.83897" transform="matrix(4.37114e-08 -1 -1 -4.37114e-08 743.031 7.59902)" fill="white"/>
<circle r="1.83897" transform="matrix(4.37114e-08 -1 -1 -4.37114e-08 857.047 151.039)" fill="white"/>
<circle cx="121.459" cy="505.96" r="1.83897" transform="rotate(90 121.459 505.96)" fill="white"/>
<circle cx="1325.98" cy="835.613" r="1.83897" transform="rotate(-90 1325.98 835.613)" fill="white"/>
<circle cx="1208.29" cy="18.6329" r="1.83897" transform="rotate(90 1208.29 18.6329)" fill="white"/>
<circle r="1.83897" transform="matrix(4.37114e-08 -1 -1 -4.37114e-08 526.032 599.747)" fill="white"/>
<circle r="1.83897" transform="matrix(-4.37114e-08 1 1 4.37114e-08 921.411 741.825)" fill="white"/>
<circle r="1.83897" transform="matrix(4.37114e-08 -1 -1 -4.37114e-08 794.522 619.976)" fill="white"/>
<circle r="1.83897" transform="matrix(-4.37114e-08 1 1 4.37114e-08 652.921 721.596)" fill="white"/>
<circle r="1.83897" transform="matrix(4.37114e-08 -1 -1 -4.37114e-08 759.581 658.594)" fill="white"/>
<circle r="1.83897" transform="matrix(-4.37114e-08 1 1 4.37114e-08 687.862 682.978)" fill="white"/>
<circle r="1.83897" transform="matrix(4.37114e-08 -1 -1 -4.37114e-08 925.089 610.781)" fill="white"/>
<circle r="1.83897" transform="matrix(-4.37114e-08 1 1 4.37114e-08 522.354 730.791)" fill="white"/>
<circle cx="189.501" cy="82.9967" r="1.83897" transform="rotate(90 189.501 82.9967)" fill="white"/>
<circle cx="1050.14" cy="204.369" r="1.83897" transform="rotate(90 1050.14 204.369)" fill="white"/>
<circle r="1.83897" transform="matrix(4.37114e-08 -1 -1 -4.37114e-08 314.551 452.63)" fill="white"/>
<circle r="1.83897" transform="matrix(-4.37114e-08 1 1 4.37114e-08 1132.89 888.943)" fill="white"/>
<circle cx="1103.47" cy="222.759" r="1.83897" transform="rotate(90 1103.47 222.759)" fill="white"/>
<circle r="1.83897" transform="matrix(4.37114e-08 -1 -1 -4.37114e-08 367.881 434.24)" fill="white"/>
<circle r="1.83897" transform="matrix(-4.37114e-08 1 1 4.37114e-08 1079.56 907.332)" fill="white"/>
<circle cx="1031.75" cy="276.088" r="1.83897" transform="rotate(90 1031.75 276.088)" fill="white"/>
<circle r="1.83897" transform="matrix(4.37114e-08 -1 -1 -4.37114e-08 296.161 380.91)" fill="white"/>
<circle cx="1051.98" cy="303.673" r="1.83897" transform="rotate(90 1051.98 303.673)" fill="white"/>
<circle r="1.83897" transform="matrix(4.37114e-08 -1 -1 -4.37114e-08 316.39 353.325)" fill="white"/>
<circle cx="1206.45" cy="128.971" r="1.83897" transform="rotate(90 1206.45 128.971)" fill="white"/>
<circle r="1.83897" transform="matrix(4.37114e-08 -1 -1 -4.37114e-08 470.863 608.942)" fill="white"/>
<circle r="1.83897" transform="matrix(-4.37114e-08 1 1 4.37114e-08 976.58 732.63)" fill="white"/>
<circle cx="1427.13" cy="31.506" r="1.83897" transform="rotate(90 1427.13 31.506)" fill="white"/>
<circle r="1.83897" transform="matrix(4.37114e-08 -1 -1 -4.37114e-08 446.957 653.077)" fill="white"/>
<circle r="1.83897" transform="matrix(-4.37114e-08 1 1 4.37114e-08 1000.49 688.495)" fill="white"/>
<circle cx="1252.43" cy="184.14" r="1.83897" transform="rotate(90 1252.43 184.14)" fill="white"/>
<circle r="1.83897" transform="matrix(4.37114e-08 -1 -1 -4.37114e-08 496.609 463.663)" fill="white"/>
<circle r="1.83897" transform="matrix(-4.37114e-08 1 1 4.37114e-08 950.834 877.909)" fill="white"/>
<circle cx="1430.81" cy="147.36" r="1.83897" transform="rotate(90 1430.81 147.36)" fill="white"/>
<circle r="1.83897" transform="matrix(4.37114e-08 -1 -1 -4.37114e-08 695.217 509.638)" fill="white"/>
<circle r="1.83897" transform="matrix(-4.37114e-08 1 1 4.37114e-08 1336.66 679.126)" fill="white"/>
<circle cx="1257.94" cy="336.775" r="1.83897" transform="rotate(90 1257.94 336.775)" fill="white"/>
<circle r="1.83897" transform="matrix(4.37114e-08 -1 -1 -4.37114e-08 522.355 320.224)" fill="white"/>
<circle cx="1234.04" cy="520.672" r="1.83897" transform="rotate(90 1234.04 520.672)" fill="white"/>
<circle cx="213.408" cy="820.901" r="1.83897" transform="rotate(-90 213.408 820.901)" fill="white"/>
<circle r="1.83897" transform="matrix(4.37114e-08 -1 -1 -4.37114e-08 498.448 136.327)" fill="white"/>
<circle cx="1053.82" cy="121.615" r="1.83897" transform="rotate(90 1053.82 121.615)" fill="white"/>
<circle r="1.83897" transform="matrix(4.37114e-08 -1 -1 -4.37114e-08 318.229 535.383)" fill="white"/>
<circle r="1.83897" transform="matrix(-4.37114e-08 1 1 4.37114e-08 1129.21 806.189)" fill="white"/>
<circle cx="1114.5" cy="351.486" r="1.83897" transform="rotate(90 1114.5 351.486)" fill="white"/>
<circle r="1.83897" transform="matrix(4.37114e-08 -1 -1 -4.37114e-08 378.915 305.512)" fill="white"/>
<circle cx="1193.58" cy="233.792" r="1.83897" transform="rotate(90 1193.58 233.792)" fill="white"/>
<circle r="1.83897" transform="matrix(4.37114e-08 -1 -1 -4.37114e-08 494.77 528.027)" fill="white"/>
<circle r="1.83897" transform="matrix(-4.37114e-08 1 1 4.37114e-08 952.673 813.545)" fill="white"/>
<circle cx="1053.82" cy="2.08213" r="1.83897" transform="rotate(90 1053.82 2.08213)" fill="white"/>
<circle r="1.83897" transform="matrix(4.37114e-08 -1 -1 -4.37114e-08 318.229 654.916)" fill="white"/>
<circle r="1.83897" transform="matrix(-4.37114e-08 1 1 4.37114e-08 1129.21 686.656)" fill="white"/>
<circle cx="1134.73" cy="653.077" r="1.83897" transform="rotate(90 1134.73 653.077)" fill="white"/>
<circle cx="312.712" cy="688.495" r="1.83897" transform="rotate(-90 312.712 688.495)" fill="white"/>
<circle r="1.83897" transform="matrix(4.37114e-08 -1 -1 -4.37114e-08 399.143 3.92128)" fill="white"/>
<circle cx="1059.33" cy="636.526" r="1.83897" transform="rotate(90 1059.33 636.526)" fill="white"/>
<circle cx="388.11" cy="705.046" r="1.83897" transform="rotate(-90 388.11 705.046)" fill="white"/>
<circle r="1.83897" transform="matrix(4.37114e-08 -1 -1 -4.37114e-08 323.746 20.4716)" fill="white"/>
<circle r="1.83897" transform="matrix(4.37114e-08 -1 -1 -4.37114e-08 869.919 570.324)" fill="white"/>
<circle r="1.83897" transform="matrix(-4.37114e-08 1 1 4.37114e-08 577.524 771.249)" fill="white"/>
<circle cx="134.332" cy="86.6747" r="1.83897" transform="rotate(90 134.332 86.6747)" fill="white"/>
<circle cx="1302.08" cy="382.749" r="1.83897" transform="rotate(90 1302.08 382.749)" fill="white"/>
<circle r="1.83897" transform="matrix(4.37114e-08 -1 -1 -4.37114e-08 965.546 285.283)" fill="white"/>
<circle cx="229.958" cy="371.715" r="1.83897" transform="rotate(90 229.958 371.715)" fill="white"/>
<circle cx="1107.15" cy="417.689" r="1.83897" transform="rotate(90 1107.15 417.689)" fill="white"/>
<circle r="1.83897" transform="matrix(4.37114e-08 -1 -1 -4.37114e-08 371.559 239.309)" fill="white"/>
<circle r="1.83897" transform="matrix(4.37114e-08 -1 -1 -4.37114e-08 741.192 226.436)" fill="white"/>
<circle cx="31.3497" cy="502.282" r="1.83897" transform="rotate(90 31.3497 502.282)" fill="white"/>
<circle cx="1416.09" cy="839.291" r="1.83897" transform="rotate(-90 1416.09 839.291)" fill="white"/>
<circle r="1.83897" transform="matrix(4.37114e-08 -1 -1 -4.37114e-08 748.548 283.444)" fill="white"/>
<circle cx="12.96" cy="373.554" r="1.83897" transform="rotate(90 12.96 373.554)" fill="white"/>
<circle r="1.83897" transform="matrix(4.37114e-08 -1 -1 -4.37114e-08 744.87 456.308)" fill="white"/>
<circle r="1.83897" transform="matrix(-4.37114e-08 1 1 4.37114e-08 1277.92 739.8)" fill="white"/>
<circle cx="9.28206" cy="200.691" r="1.83897" transform="rotate(90 9.28206 200.691)" fill="white"/>
<circle r="1.83897" transform="matrix(4.37114e-08 -1 -1 -4.37114e-08 855.208 636.527)" fill="white"/>
<circle r="1.83897" transform="matrix(-4.37114e-08 1 1 4.37114e-08 592.235 705.046)" fill="white"/>
<circle cx="119.62" cy="20.4718" r="1.83897" transform="rotate(90 119.62 20.4718)" fill="white"/>
<circle r="1.83897" transform="matrix(4.37114e-08 -1 -1 -4.37114e-08 888.309 654.916)" fill="white"/>
<circle r="1.83897" transform="matrix(-4.37114e-08 1 1 4.37114e-08 559.134 686.656)" fill="white"/>
<circle cx="152.722" cy="2.08213" r="1.83897" transform="rotate(90 152.722 2.08213)" fill="white"/>
<circle r="1.83897" transform="matrix(4.37114e-08 -1 -1 -4.37114e-08 834.979 224.597)" fill="white"/>
<circle cx="99.3915" cy="432.401" r="1.83897" transform="rotate(90 99.3915 432.401)" fill="white"/>
<circle cx="1348.05" cy="909.171" r="1.83897" transform="rotate(-90 1348.05 909.171)" fill="white"/>
<circle r="1.83897" transform="matrix(4.37114e-08 -1 -1 -4.37114e-08 831.301 395.622)" fill="white"/>
<circle r="1.83897" transform="matrix(-4.37114e-08 1 1 4.37114e-08 623.024 905.449)" fill="white"/>
<circle cx="95.7136" cy="261.377" r="1.83897" transform="rotate(90 95.7136 261.377)" fill="white"/>
<circle cx="1357.25" cy="132.649" r="1.83897" transform="rotate(90 1357.25 132.649)" fill="white"/>
<circle r="1.83897" transform="matrix(4.37114e-08 -1 -1 -4.37114e-08 575.684 540.9)" fill="white"/>
<circle r="1.83897" transform="matrix(-4.37114e-08 1 1 4.37114e-08 871.759 800.672)" fill="white"/>
<circle cx="1099.79" cy="128.971" r="1.83897" transform="rotate(90 1099.79 128.971)" fill="white"/>
<circle r="1.83897" transform="matrix(4.37114e-08 -1 -1 -4.37114e-08 364.203 528.027)" fill="white"/>
<circle r="1.83897" transform="matrix(-4.37114e-08 1 1 4.37114e-08 1083.24 813.545)" fill="white"/>
<circle r="1.83897" transform="matrix(4.37114e-08 -1 -1 -4.37114e-08 665.4 347.827)" fill="white"/>
<circle r="1.83897" transform="matrix(-4.37114e-08 1 1 4.37114e-08 737.514 916.527)" fill="white"/>
<circle cx="12.96" cy="152.878" r="1.83897" transform="rotate(90 12.96 152.878)" fill="white"/>
<circle r="1.83897" transform="matrix(4.37114e-08 -1 -1 -4.37114e-08 884.631 509.638)" fill="white"/>
<circle r="1.83897" transform="matrix(-4.37114e-08 1 1 4.37114e-08 562.812 831.935)" fill="white"/>
<circle cx="149.044" cy="147.36" r="1.83897" transform="rotate(90 149.044 147.36)" fill="white"/>
<circle r="1.83897" transform="matrix(4.37114e-08 -1 -1 -4.37114e-08 934.283 561.129)" fill="white"/>
<circle r="1.83897" transform="matrix(-4.37114e-08 1 1 4.37114e-08 1.83897 768.692)" fill="white"/>
<circle cx="207.891" cy="37.0228" r="1.83897" transform="rotate(90 207.891 37.0228)" fill="white"/>
<circle r="1.83897" transform="matrix(4.37114e-08 -1 -1 -4.37114e-08 1035.43 471.019)" fill="white"/>
<circle r="1.83897" transform="matrix(-4.37114e-08 1 1 4.37114e-08 412.016 870.553)" fill="white"/>
<circle cx="299.839" cy="185.979" r="1.83897" transform="rotate(90 299.839 185.979)" fill="white"/>
<circle cx="1375.64" cy="388.266" r="1.83897" transform="rotate(90 1375.64 388.266)" fill="white"/>
<circle r="1.83897" transform="matrix(4.37114e-08 -1 -1 -4.37114e-08 691.539 248.504)" fill="white"/>
<circle cx="1257.94" cy="461.824" r="1.83897" transform="rotate(90 1257.94 461.824)" fill="white"/>
<circle cx="189.501" cy="879.748" r="1.83897" transform="rotate(-90 189.501 879.748)" fill="white"/>
<circle r="1.83897" transform="matrix(4.37114e-08 -1 -1 -4.37114e-08 509.482 233.792)" fill="white"/>
<circle r="1.83897" transform="matrix(4.37114e-08 -1 -1 -4.37114e-08 921.411 206.208)" fill="white"/>
<circle cx="185.823" cy="450.791" r="1.83897" transform="rotate(90 185.823 450.791)" fill="white"/>
<circle cx="1261.62" cy="890.782" r="1.83897" transform="rotate(-90 1261.62 890.782)" fill="white"/>
<circle cx="1074.96" cy="512.396" r="4.59742" transform="rotate(90 1074.96 512.396)" fill="white"/>
<circle r="4.59742" transform="matrix(4.37114e-08 -1 -1 -4.37114e-08 346.733 109.662)" fill="white"/>
<circle cx="1254.26" cy="266.894" r="1.83897" transform="rotate(90 1254.26 266.894)" fill="white"/>
<circle r="1.83897" transform="matrix(4.37114e-08 -1 -1 -4.37114e-08 518.676 390.105)" fill="white"/>
<circle r="1.83897" transform="matrix(4.37114e-08 -1 -1 -4.37114e-08 947.156 382.749)" fill="white"/>
<circle cx="211.569" cy="274.25" r="1.83897" transform="rotate(90 211.569 274.25)" fill="white"/>
<circle cx="1177.03" cy="331.258" r="1.83897" transform="rotate(90 1177.03 331.258)" fill="white"/>
<circle r="1.83897" transform="matrix(4.37114e-08 -1 -1 -4.37114e-08 441.44 325.741)" fill="white"/>
<circle r="1.83897" transform="matrix(4.37114e-08 -1 -1 -4.37114e-08 840.496 336.775)" fill="white"/>
<circle cx="104.908" cy="320.224" r="1.83897" transform="rotate(90 104.908 320.224)" fill="white"/>
<circle cx="1410.58" cy="603.425" r="1.83897" transform="rotate(90 1410.58 603.425)" fill="white"/>
<circle cx="36.8666" cy="738.147" r="1.83897" transform="rotate(-90 36.8666 738.147)" fill="white"/>
<circle r="1.83897" transform="matrix(4.37114e-08 -1 -1 -4.37114e-08 674.989 53.5731)" fill="white"/>
<circle cx="1280.01" cy="632.849" r="1.83897" transform="rotate(90 1280.01 632.849)" fill="white"/>
<circle cx="167.433" cy="708.724" r="1.83897" transform="rotate(-90 167.433 708.724)" fill="white"/>
<circle r="1.83897" transform="matrix(4.37114e-08 -1 -1 -4.37114e-08 544.422 24.15)" fill="white"/>
<circle r="1.83897" transform="matrix(4.37114e-08 -1 -1 -4.37114e-08 943.478 35.1835)" fill="white"/>
<circle cx="207.891" cy="621.815" r="1.83897" transform="rotate(90 207.891 621.815)" fill="white"/>
<circle cx="1239.55" cy="719.757" r="1.83897" transform="rotate(-90 1239.55 719.757)" fill="white"/>
<circle cx="1314.95" cy="259.538" r="1.83897" transform="rotate(90 1314.95 259.538)" fill="white"/>
<circle r="1.83897" transform="matrix(4.37114e-08 -1 -1 -4.37114e-08 579.362 397.461)" fill="white"/>
<circle r="1.83897" transform="matrix(4.37114e-08 -1 -1 -4.37114e-08 1000.49 357.003)" fill="white"/>
<circle cx="264.899" cy="299.995" r="1.83897" transform="rotate(90 264.899 299.995)" fill="white"/>
<circle r="1.83897" transform="matrix(4.37114e-08 -1 -1 -4.37114e-08 976.58 432.401)" fill="white"/>
<circle r="1.83897" transform="matrix(-4.37114e-08 1 1 4.37114e-08 470.863 909.171)" fill="white"/>
<circle cx="248.348" cy="252.182" r="1.83897" transform="rotate(90 248.348 252.182)" fill="white"/>
<circle r="1.83897" transform="matrix(4.37114e-08 -1 -1 -4.37114e-08 1024.39 540.9)" fill="white"/>
<circle r="1.83897" transform="matrix(-4.37114e-08 1 1 4.37114e-08 423.05 800.672)" fill="white"/>
<circle cx="288.805" cy="116.098" r="1.83897" transform="rotate(90 288.805 116.098)" fill="white"/>
<circle r="1.83897" transform="matrix(4.37114e-08 -1 -1 -4.37114e-08 1188.06 636.527)" fill="white"/>
<circle r="1.83897" transform="matrix(-4.37114e-08 1 1 4.37114e-08 259.382 705.046)" fill="white"/>
<circle cx="606.947" cy="640.204" r="1.83897" transform="rotate(90 606.947 640.204)" fill="white"/>
<circle cx="840.496" cy="701.368" r="1.83897" transform="rotate(-90 840.496 701.368)" fill="white"/>
<circle r="1.83897" transform="matrix(4.37114e-08 -1 -1 -4.37114e-08 1096.11 594.23)" fill="white"/>
<circle r="1.83897" transform="matrix(-4.37114e-08 1 1 4.37114e-08 351.33 747.342)" fill="white"/>
<circle cx="474.541" cy="60.9293" r="1.83897" transform="rotate(90 474.541 60.9293)" fill="white"/>
<circle r="1.83897" transform="matrix(4.37114e-08 -1 -1 -4.37114e-08 1000.49 618.137)" fill="white"/>
<circle r="1.83897" transform="matrix(-4.37114e-08 1 1 4.37114e-08 446.957 723.435)" fill="white"/>
<circle cx="292.483" cy="79.3189" r="1.83897" transform="rotate(90 292.483 79.3189)" fill="white"/>
<circle cx="1110.82" cy="316.546" r="1.83897" transform="rotate(90 1110.82 316.546)" fill="white"/>
<circle r="1.83897" transform="matrix(4.37114e-08 -1 -1 -4.37114e-08 375.237 340.453)" fill="white"/>
<circle r="1.83897" transform="matrix(4.37114e-08 -1 -1 -4.37114e-08 739.353 336.775)" fill="white"/>
<circle cx="3.76516" cy="320.224" r="1.83897" transform="rotate(90 3.76516 320.224)" fill="white"/>
<circle cx="1333.34" cy="515.155" r="1.83897" transform="rotate(90 1333.34 515.155)" fill="white"/>
<circle cx="114.103" cy="826.418" r="1.83897" transform="rotate(-90 114.103 826.418)" fill="white"/>
<circle r="1.83897" transform="matrix(4.37114e-08 -1 -1 -4.37114e-08 577.524 134.488)" fill="white"/>
<circle r="1.83897" transform="matrix(4.37114e-08 -1 -1 -4.37114e-08 1028.07 90.3529)" fill="white"/>
<circle cx="16.638" cy="577.679" r="1.83897" transform="rotate(90 16.638 577.679)" fill="white"/>
<circle cx="1430.81" cy="763.893" r="1.83897" transform="rotate(-90 1430.81 763.893)" fill="white"/>
<circle cx="1138.41" cy="550.095" r="1.83897" transform="rotate(90 1138.41 550.095)" fill="white"/>
<circle cx="309.034" cy="791.477" r="1.83897" transform="rotate(-90 309.034 791.477)" fill="white"/>
<circle r="1.83897" transform="matrix(4.37114e-08 -1 -1 -4.37114e-08 402.821 106.903)" fill="white"/>
<circle r="1.83897" transform="matrix(4.37114e-08 -1 -1 -4.37114e-08 794.522 94.0307)" fill="white"/>
<circle cx="58.9343" cy="562.968" r="1.83897" transform="rotate(90 58.9343 562.968)" fill="white"/>
<circle cx="1388.51" cy="778.605" r="1.83897" transform="rotate(-90 1388.51 778.605)" fill="white"/>
<circle cx="1388.51" cy="265.055" r="1.83897" transform="rotate(90 1388.51 265.055)" fill="white"/>
<circle r="1.83897" transform="matrix(4.37114e-08 -1 -1 -4.37114e-08 557.295 480.214)" fill="white"/>
<circle r="1.83897" transform="matrix(-4.37114e-08 1 1 4.37114e-08 890.148 861.358)" fill="white"/>
<circle cx="1171.51" cy="246.665" r="1.83897" transform="rotate(90 1171.51 246.665)" fill="white"/>
<circle r="1.83897" transform="matrix(4.37114e-08 -1 -1 -4.37114e-08 435.923 410.333)" fill="white"/>
<circle r="1.83897" transform="matrix(4.37114e-08 -1 -1 -4.37114e-08 699.107 428.726)" fill="white"/>
<circle r="1.83897" transform="matrix(-4.37114e-08 1 1 4.37114e-08 683.698 863.074)" fill="white"/>
<circle cx="99.3915" cy="235.631" r="1.83897" transform="rotate(90 99.3915 235.631)" fill="white"/>
<circle cx="1434.48" cy="491.248" r="1.83897" transform="rotate(90 1434.48 491.248)" fill="white"/>
<circle cx="12.96" cy="850.324" r="1.83897" transform="rotate(-90 12.96 850.324)" fill="white"/>
<circle r="1.83897" transform="matrix(4.37114e-08 -1 -1 -4.37114e-08 698.895 165.751)" fill="white"/>
<circle cx="1202.77" cy="579.519" r="1.83897" transform="rotate(90 1202.77 579.519)" fill="white"/>
<circle cx="244.67" cy="762.054" r="1.83897" transform="rotate(-90 244.67 762.054)" fill="white"/>
<circle r="1.83897" transform="matrix(4.37114e-08 -1 -1 -4.37114e-08 419.372 160.234)" fill="white"/>
<circle r="1.83897" transform="matrix(4.37114e-08 -1 -1 -4.37114e-08 866.242 88.5138)" fill="white"/>
<circle cx="130.654" cy="568.485" r="1.83897" transform="rotate(90 130.654 568.485)" fill="white"/>
<circle cx="1316.79" cy="773.088" r="1.83897" transform="rotate(-90 1316.79 773.088)" fill="white"/>
</g>
<script xmlns=""/></svg>